<?xml version="1.0" encoding="UTF-8"?>
<svg id="Layer_2" data-name="Layer 2" xmlns="http://www.w3.org/2000/svg" viewBox="0 0 574.32 306.43" height="30px" width="100px">
  <defs>
    <style>
      .cls-1 {
        fill: none;
        stroke: #231f20;
      }

      .cls-1, .cls-2 {
        stroke-miterlimit: 10;
      }

      .cls-3 {
        fill: #fbae37;
      }

      .cls-2 {
        fill: #fff;
        stroke: #3374ba;
      }

      .cls-4 {
        fill: #231f20;
      }
    </style>
  </defs>
  <g id="Layer_1-2" data-name="Layer 1">
   
    <path class="cls-3" d="m52.72,109.37h0c25.28,0,45.78-22.66,45.78-50.61l.1-45.26h0c.05,1.98-1.49,3.64-3.47,3.7-23.63.67-42.42,8.41-42.42,35.03v57.14Z"/>
    <path class="cls-2" d="m.5.5h0C25.77.5,46.28,21.01,46.28,46.28v61.96h0C21.01,108.24.5,87.73.5,62.46V.5h0Z"/>
    <path class="cls-1" d="m11.46,98.17l-.65-1.44"/>
    <g>
      <path class="cls-4" d="m121.65,50.61c0-8.46-.17-15.4-.68-22.18h13.2l.85,13.54h.34c4.06-7.79,13.54-15.4,27.09-15.4,11.34,0,28.95,6.77,28.95,34.87v48.92h-14.9v-47.23c0-13.2-4.91-24.21-18.96-24.21-9.82,0-17.44,6.94-19.98,15.24-.68,1.86-1.02,4.4-1.02,6.94v49.26h-14.9v-59.76Z"/>
      <path class="cls-4" d="m215.6,110.37V28.43h14.9v81.93h-14.9Z"/>
      <path class="cls-4" d="m255.21,55.18c0-10.5-.34-18.96-.68-26.75h13.37l.68,14.05h.34c6.09-9.99,15.74-15.91,29.12-15.91,19.81,0,34.7,16.76,34.7,41.64,0,29.45-17.94,44.01-37.24,44.01-10.83,0-20.31-4.74-25.22-12.87h-.34v44.52h-14.73V55.18Zm14.73,21.84c0,2.2.34,4.23.68,6.09,2.71,10.33,11.68,17.44,22.34,17.44,15.74,0,24.89-12.87,24.89-31.66,0-16.42-8.63-30.47-24.38-30.47-10.16,0-19.64,7.28-22.51,18.45-.51,1.86-1.02,4.06-1.02,6.09v14.05Z"/>
      <path class="cls-4" d="m396.91,110.37l-1.18-10.33h-.51c-4.57,6.43-13.37,12.19-25.05,12.19-16.59,0-25.05-11.68-25.05-23.53,0-19.81,17.61-30.64,49.26-30.47v-1.69c0-6.77-1.86-18.96-18.62-18.96-7.62,0-15.58,2.37-21.33,6.09l-3.39-9.82c6.77-4.4,16.59-7.28,26.92-7.28,25.05,0,31.15,17.1,31.15,33.52v30.64c0,7.11.34,14.05,1.35,19.64h-13.54Zm-2.2-41.81c-16.25-.34-34.7,2.54-34.7,18.45,0,9.65,6.43,14.22,14.05,14.22,10.66,0,17.43-6.77,19.81-13.71.51-1.52.85-3.22.85-4.74v-14.22Z"/>
      <path class="cls-4" d="m491.54,107.32c-3.89,2.03-12.53,4.74-23.53,4.74-24.72,0-40.8-16.76-40.8-41.81s17.27-43.51,44.01-43.51c8.8,0,16.59,2.2,20.65,4.23l-3.39,11.51c-3.55-2.03-9.14-3.89-17.27-3.89-18.79,0-28.95,13.88-28.95,30.98,0,18.96,12.19,30.64,28.44,30.64,8.46,0,14.05-2.2,18.28-4.06l2.54,11.17Z"/>
      <path class="cls-4" d="m516.26,72.11c.34,20.15,13.2,28.44,28.1,28.44,10.66,0,17.1-1.86,22.68-4.23l2.54,10.66c-5.25,2.37-14.22,5.08-27.25,5.08-25.22,0-40.29-16.59-40.29-41.31s14.56-44.18,38.43-44.18c26.75,0,33.86,23.53,33.86,38.6,0,3.05-.34,5.42-.51,6.94h-57.56Zm43.67-10.66c.17-9.48-3.89-24.21-20.65-24.21-15.07,0-21.67,13.88-22.85,24.21h43.5Z"/>
    </g>
    <path class="cls-3" d="m216.05,22.13c-.52-2.55-.76-5.87.26-9.45.14-.48.29-.95.46-1.39.19-.42.52-1.04,1.08-1.63,1.53-1.59,3.63-1.83,5.24-1.99,3.36-.33,6.78-.57,10.29-.72-.13,1.3-.81,6.56-5.35,10.74-4.93,4.53-10.8,4.47-11.98,4.43Z"/>
  </g>
</svg>
