<?xml version="1.0" encoding="UTF-8"?>
<svg id="Layer_2" data-name="Layer 2" xmlns="http://www.w3.org/2000/svg" viewBox="0 0 574.32 306.43">
  <defs>
    <style>
      .cls-1 {
        fill: none;
        stroke: #231f20;
      }

      .cls-1, .cls-2 {
        stroke-miterlimit: 10;
      }

      .cls-3 {
        fill: #fbae37;
      }

      .cls-2 {
        fill: #fff;
        stroke: #3374ba;
      }

      .cls-4 {
        fill: #231f20;
      }
    </style>
  </defs>
  <g id="Layer_1-2" data-name="Layer 1">
    <!-- <path class="cls-3" d="m43.89,225h0c12.64,0,22.89-11.33,22.89-25.3l.05-22.63h0c.03.99-.75,1.82-1.73,1.85-11.82.34-21.21,4.2-21.21,17.52v28.57Z"/>
    <path class="cls-2" d="m17.77,170.56h0c12.63,0,22.89,10.26,22.89,22.89v30.98h0c-12.63,0-22.89-10.26-22.89-22.89v-30.98h0Z"/>
    <path class="cls-1" d="m23.25,219.4l-.33-.72"/>
    <g>
      <path class="cls-4" d="m78.35,195.62c0-4.23-.08-7.7-.34-11.09h6.6l.42,6.77h.17c2.03-3.89,6.77-7.7,13.54-7.7,5.67,0,14.47,3.39,14.47,17.44v24.46h-7.45v-23.62c0-6.6-2.45-12.1-9.48-12.1-4.91,0-8.72,3.47-9.99,7.62-.34.93-.51,2.2-.51,3.47v24.63h-7.45v-29.88Z"/>
      <path class="cls-4" d="m125.32,225.5v-40.97h7.45v40.97h-7.45Z"/>
      <path class="cls-4" d="m145.13,197.9c0-5.25-.17-9.48-.34-13.37h6.69l.34,7.03h.17c3.05-4.99,7.87-7.96,14.56-7.96,9.9,0,17.35,8.38,17.35,20.82,0,14.73-8.97,22.01-18.62,22.01-5.42,0-10.16-2.37-12.61-6.43h-.17v22.26h-7.36v-44.35Zm7.36,10.92c0,1.1.17,2.12.34,3.05,1.35,5.16,5.84,8.72,11.17,8.72,7.87,0,12.44-6.43,12.44-15.83,0-8.21-4.32-15.24-12.19-15.24-5.08,0-9.82,3.64-11.26,9.23-.25.93-.51,2.03-.51,3.05v7.03Z"/>
      <path class="cls-4" d="m215.98,225.5l-.59-5.16h-.25c-2.29,3.22-6.69,6.09-12.53,6.09-8.3,0-12.53-5.84-12.53-11.77,0-9.9,8.8-15.32,24.63-15.24v-.85c0-3.39-.93-9.48-9.31-9.48-3.81,0-7.79,1.18-10.67,3.05l-1.69-4.91c3.39-2.2,8.29-3.64,13.46-3.64,12.53,0,15.57,8.55,15.57,16.76v15.32c0,3.56.17,7.03.68,9.82h-6.77Zm-1.1-20.91c-8.13-.17-17.35,1.27-17.35,9.23,0,4.82,3.22,7.11,7.03,7.11,5.33,0,8.72-3.39,9.9-6.86.25-.76.42-1.61.42-2.37v-7.11Z"/>
      <path class="cls-4" d="m263.29,223.97c-1.95,1.02-6.26,2.37-11.76,2.37-12.36,0-20.4-8.38-20.4-20.91s8.63-21.75,22.01-21.75c4.4,0,8.29,1.1,10.33,2.12l-1.69,5.76c-1.78-1.02-4.57-1.95-8.63-1.95-9.39,0-14.47,6.94-14.47,15.49,0,9.48,6.09,15.32,14.22,15.32,4.23,0,7.03-1.1,9.14-2.03l1.27,5.59Z"/>
      <path class="cls-4" d="m275.65,206.37c.17,10.07,6.6,14.22,14.05,14.22,5.33,0,8.55-.93,11.34-2.12l1.27,5.33c-2.62,1.19-7.11,2.54-13.63,2.54-12.61,0-20.15-8.29-20.15-20.65s7.28-22.09,19.21-22.09c13.37,0,16.93,11.77,16.93,19.3,0,1.52-.17,2.71-.25,3.47h-28.78Zm21.84-5.33c.08-4.74-1.95-12.1-10.33-12.1-7.53,0-10.83,6.94-11.43,12.1h21.75Z"/>
    </g>
    <path class="cls-3" d="m125.55,181.38c-.26-1.27-.38-2.94.13-4.72.07-.24.15-.47.23-.69.09-.21.26-.52.54-.81.76-.8,1.81-.91,2.62-.99,1.68-.16,3.39-.29,5.15-.36-.07.65-.41,3.28-2.68,5.37-2.47,2.27-5.4,2.23-5.99,2.22Z"/>
    <path class="cls-3" d="m31.96,300.68h0c4.21,0,7.63-3.78,7.63-8.43l.02-7.54h0c0,.33-.25.61-.58.62-3.94.11-7.07,1.4-7.07,5.84v9.52Z"/>
    <path class="cls-2" d="m23.25,282.53h0c4.21,0,7.63,3.42,7.63,7.63v10.33h0c-4.21,0-7.63-3.42-7.63-7.63v-10.33h0Z"/>
    <path class="cls-1" d="m25.08,298.81l-.11-.24"/>
    <g>
      <path class="cls-4" d="m43.44,290.89c0-1.41-.03-2.57-.11-3.7h2.2l.14,2.26h.06c.68-1.3,2.26-2.57,4.51-2.57,1.89,0,4.82,1.13,4.82,5.81v8.15h-2.48v-7.87c0-2.2-.82-4.03-3.16-4.03-1.64,0-2.91,1.16-3.33,2.54-.11.31-.17.73-.17,1.16v8.21h-2.48v-9.96Z"/>
      <path class="cls-4" d="m59.1,300.85v-13.66h2.48v13.66h-2.48Z"/>
      <path class="cls-4" d="m65.7,291.65c0-1.75-.06-3.16-.11-4.46h2.23l.11,2.34h.06c1.02-1.66,2.62-2.65,4.85-2.65,3.3,0,5.78,2.79,5.78,6.94,0,4.91-2.99,7.34-6.21,7.34-1.81,0-3.39-.79-4.2-2.14h-.06v7.42h-2.45v-14.78Zm2.45,3.64c0,.37.06.71.11,1.02.45,1.72,1.95,2.91,3.72,2.91,2.62,0,4.15-2.14,4.15-5.28,0-2.74-1.44-5.08-4.06-5.08-1.69,0-3.27,1.21-3.75,3.08-.08.31-.17.68-.17,1.02v2.34Z"/>
      <path class="cls-4" d="m89.32,300.85l-.2-1.72h-.08c-.76,1.07-2.23,2.03-4.18,2.03-2.77,0-4.18-1.95-4.18-3.92,0-3.3,2.93-5.11,8.21-5.08v-.28c0-1.13-.31-3.16-3.1-3.16-1.27,0-2.6.39-3.56,1.02l-.56-1.64c1.13-.73,2.76-1.21,4.49-1.21,4.18,0,5.19,2.85,5.19,5.59v5.11c0,1.19.06,2.34.23,3.27h-2.26Zm-.37-6.97c-2.71-.06-5.78.42-5.78,3.08,0,1.61,1.07,2.37,2.34,2.37,1.78,0,2.91-1.13,3.3-2.29.08-.25.14-.54.14-.79v-2.37Z"/>
      <path class="cls-4" d="m105.09,300.34c-.65.34-2.09.79-3.92.79-4.12,0-6.8-2.79-6.8-6.97s2.88-7.25,7.34-7.25c1.47,0,2.76.37,3.44.71l-.56,1.92c-.59-.34-1.52-.65-2.88-.65-3.13,0-4.82,2.31-4.82,5.16,0,3.16,2.03,5.11,4.74,5.11,1.41,0,2.34-.37,3.05-.68l.42,1.86Z"/>
      <path class="cls-4" d="m109.21,294.47c.06,3.36,2.2,4.74,4.68,4.74,1.78,0,2.85-.31,3.78-.71l.42,1.78c-.87.4-2.37.85-4.54.85-4.2,0-6.72-2.76-6.72-6.88s2.43-7.36,6.4-7.36c4.46,0,5.64,3.92,5.64,6.43,0,.51-.06.9-.08,1.16h-9.59Zm7.28-1.78c.03-1.58-.65-4.03-3.44-4.03-2.51,0-3.61,2.31-3.81,4.03h7.25Z"/>
    </g>
    <path class="cls-3" d="m59.18,286.14c-.09-.42-.13-.98.04-1.57.02-.08.05-.16.08-.23.03-.07.09-.17.18-.27.25-.27.6-.3.87-.33.56-.05,1.13-.1,1.72-.12-.02.22-.14,1.09-.89,1.79-.82.76-1.8.74-2,.74Z"/> -->
    <path class="cls-3" d="m52.72,109.37h0c25.28,0,45.78-22.66,45.78-50.61l.1-45.26h0c.05,1.98-1.49,3.64-3.47,3.7-23.63.67-42.42,8.41-42.42,35.03v57.14Z"/>
    <path class="cls-2" d="m.5.5h0C25.77.5,46.28,21.01,46.28,46.28v61.96h0C21.01,108.24.5,87.73.5,62.46V.5h0Z"/>
    <path class="cls-1" d="m11.46,98.17l-.65-1.44"/>
    <g>
      <path class="cls-4" d="m121.65,50.61c0-8.46-.17-15.4-.68-22.18h13.2l.85,13.54h.34c4.06-7.79,13.54-15.4,27.09-15.4,11.34,0,28.95,6.77,28.95,34.87v48.92h-14.9v-47.23c0-13.2-4.91-24.21-18.96-24.21-9.82,0-17.44,6.94-19.98,15.24-.68,1.86-1.02,4.4-1.02,6.94v49.26h-14.9v-59.76Z"/>
      <path class="cls-4" d="m215.6,110.37V28.43h14.9v81.93h-14.9Z"/>
      <path class="cls-4" d="m255.21,55.18c0-10.5-.34-18.96-.68-26.75h13.37l.68,14.05h.34c6.09-9.99,15.74-15.91,29.12-15.91,19.81,0,34.7,16.76,34.7,41.64,0,29.45-17.94,44.01-37.24,44.01-10.83,0-20.31-4.74-25.22-12.87h-.34v44.52h-14.73V55.18Zm14.73,21.84c0,2.2.34,4.23.68,6.09,2.71,10.33,11.68,17.44,22.34,17.44,15.74,0,24.89-12.87,24.89-31.66,0-16.42-8.63-30.47-24.38-30.47-10.16,0-19.64,7.28-22.51,18.45-.51,1.86-1.02,4.06-1.02,6.09v14.05Z"/>
      <path class="cls-4" d="m396.91,110.37l-1.18-10.33h-.51c-4.57,6.43-13.37,12.19-25.05,12.19-16.59,0-25.05-11.68-25.05-23.53,0-19.81,17.61-30.64,49.26-30.47v-1.69c0-6.77-1.86-18.96-18.62-18.96-7.62,0-15.58,2.37-21.33,6.09l-3.39-9.82c6.77-4.4,16.59-7.28,26.92-7.28,25.05,0,31.15,17.1,31.15,33.52v30.64c0,7.11.34,14.05,1.35,19.64h-13.54Zm-2.2-41.81c-16.25-.34-34.7,2.54-34.7,18.45,0,9.65,6.43,14.22,14.05,14.22,10.66,0,17.43-6.77,19.81-13.71.51-1.52.85-3.22.85-4.74v-14.22Z"/>
      <path class="cls-4" d="m491.54,107.32c-3.89,2.03-12.53,4.74-23.53,4.74-24.72,0-40.8-16.76-40.8-41.81s17.27-43.51,44.01-43.51c8.8,0,16.59,2.2,20.65,4.23l-3.39,11.51c-3.55-2.03-9.14-3.89-17.27-3.89-18.79,0-28.95,13.88-28.95,30.98,0,18.96,12.19,30.64,28.44,30.64,8.46,0,14.05-2.2,18.28-4.06l2.54,11.17Z"/>
      <path class="cls-4" d="m516.26,72.11c.34,20.15,13.2,28.44,28.1,28.44,10.66,0,17.1-1.86,22.68-4.23l2.54,10.66c-5.25,2.37-14.22,5.08-27.25,5.08-25.22,0-40.29-16.59-40.29-41.31s14.56-44.18,38.43-44.18c26.75,0,33.86,23.53,33.86,38.6,0,3.05-.34,5.42-.51,6.94h-57.56Zm43.67-10.66c.17-9.48-3.89-24.21-20.65-24.21-15.07,0-21.67,13.88-22.85,24.21h43.5Z"/>
    </g>
    <path class="cls-3" d="m216.05,22.13c-.52-2.55-.76-5.87.26-9.45.14-.48.29-.95.46-1.39.19-.42.52-1.04,1.08-1.63,1.53-1.59,3.63-1.83,5.24-1.99,3.36-.33,6.78-.57,10.29-.72-.13,1.3-.81,6.56-5.35,10.74-4.93,4.53-10.8,4.47-11.98,4.43Z"/>
  </g>
</svg>