<svg xmlns="http://www.w3.org/2000/svg" xmlns:xlink="http://www.w3.org/1999/xlink" viewBox="0,0,255.99889,255.99889" width="48px" height="48px"><g fill="#1986d2" fill-rule="nonzero" stroke="none" stroke-width="1" stroke-linecap="butt" stroke-linejoin="miter" stroke-miterlimit="10" stroke-dasharray="" stroke-dashoffset="0" font-family="none" font-weight="none" font-size="none" text-anchor="none" style="mix-blend-mode: normal"><g transform="scale(10.66667,10.66667)"><path d="M20,4h-16c-1.105,0 -2,0.895 -2,2v12c0,1.105 0.895,2 2,2h16c1.105,0 2,-0.895 2,-2v-12c0,-1.105 -0.895,-2 -2,-2zM5.628,16.193l2.49,-3.202c0.196,-0.252 0.575,-0.258 0.779,-0.012l2.103,2.531l3.098,-3.992c0.202,-0.261 0.597,-0.257 0.795,0.007l3.507,4.675c0.247,0.33 0.012,0.8 -0.4,0.8h-11.978c-0.416,0 -0.65,-0.479 -0.394,-0.807z"></path></g></g></svg>